<svg width="132" height="69" viewBox="0 0 132 69" fill="none" xmlns="http://www.w3.org/2000/svg">
<g clip-path="url(#clip0)">
<path d="M12.0522 0.257949C6.50725 0.745249 1.83825 1.85076 0.575153 2.93036C-0.147547 3.54656 -0.147547 3.54656 0.342753 4.08656C0.987253 4.80626 4.05615 5.73154 7.59035 6.32284C11.5884 6.99084 20.1002 7.01626 21.3135 6.37416C22.5254 5.70616 22.9375 4.96052 22.9375 3.39271C22.9375 1.77401 22.3184 0.976725 20.7197 0.540225C19.2739 0.154325 14.9414 4.91142e-05 12.0522 0.257949Z" fill="#363636"/>
<path d="M25.7744 0.488289C25.645 0.771484 25.5161 2.5962 25.5161 4.60011C25.5161 8.6611 25.6714 8.37841 23.3242 8.53321L22.2934 8.61031L22.164 11.1547L22.0351 13.6986L20.8486 13.9818C18.2695 14.6498 16.8496 16.577 17.0571 19.2762C17.185 21.2034 18.0879 22.617 19.6357 23.3631C20.7446 23.8763 21.1054 23.9012 30.8818 23.9012C36.4267 23.9012 41.019 23.9798 41.0703 24.0819C41.1211 24.2103 39.9609 33.4891 38.4907 44.7206C37.0459 55.9511 35.8076 65.7177 35.7822 66.3866C35.7309 68.0038 36.6084 69.0077 38.1299 69.0077C39.3672 69.0077 40.1416 68.3661 40.4512 67.1063C40.5806 66.5926 41.9468 56.7733 43.4693 45.285C44.9913 33.8221 46.3321 24.4163 46.4097 24.4163C46.5127 24.4163 47.4927 25.8294 48.6021 27.552C51.542 32.178 51.001 31.8689 56.2374 31.8689H60.5958V34.6711V37.4987L55.463 37.5758C50.7428 37.6529 50.253 37.7028 49.5817 38.191C48.0089 39.3482 47.9567 39.606 47.9567 49.1676C47.9567 58.7018 47.9831 58.9596 49.4792 60.2174L50.3303 60.9127H66.0129H81.6955L82.5461 60.2174C84.0422 58.9596 84.0666 58.7018 84.0666 49.1676C84.0666 39.6061 84.0158 39.3483 82.4436 38.191C81.7727 37.7027 81.2825 37.6529 76.5618 37.5758L71.43 37.4987V34.6711V31.8689H75.7894C81.0238 31.8689 80.4828 32.178 83.4232 27.552C84.5336 25.8293 85.513 24.4163 85.6166 24.4163C85.6928 24.4163 87.0355 33.8221 88.5561 45.285C90.0786 56.7733 91.4457 66.5926 91.5747 67.1063C91.8843 68.3661 92.6567 69.0077 93.896 69.0077C95.4175 69.0077 96.2954 68.0038 96.2427 66.3866C96.2173 65.7177 94.979 55.9511 93.5337 44.7206C92.0649 33.4892 90.9028 24.2103 90.9556 24.0819C91.0064 23.9798 95.5972 23.9012 101.145 23.9012C110.92 23.9012 111.281 23.8763 112.389 23.3631C113.937 22.617 114.839 21.2034 114.968 19.2762C115.175 16.577 113.757 14.6497 111.177 13.9818L109.99 13.6986L109.863 11.1547L109.734 8.61031L108.702 8.53321C106.355 8.37841 106.508 8.6611 106.508 4.60011C106.508 2.5962 106.38 0.771484 106.251 0.488289C106.045 0.128387 105.708 7.62939e-06 104.884 7.62939e-06C104.265 7.62939e-06 103.646 0.128395 103.464 0.308601C103.258 0.514198 103.155 1.77393 103.155 4.24073C103.155 6.70803 103.052 7.96781 102.845 8.17281C102.665 8.35251 101.944 8.48092 101.196 8.48092C99.5698 8.48092 99.5444 8.53312 99.5444 11.5913V13.8784H66.0127H32.4805V11.5913C32.4805 8.53321 32.4556 8.48092 30.8306 8.48092C30.0821 8.48092 29.3604 8.35251 29.1802 8.17281C28.9727 7.96771 28.8701 6.70803 28.8701 4.24073C28.8701 1.77393 28.7671 0.514099 28.5605 0.308601C28.3798 0.128395 27.7602 7.62939e-06 27.1416 7.62939e-06C26.3169 7.62939e-06 25.9814 0.128487 25.7744 0.488289ZM68.6172 40.6084C71.5059 41.5068 74.0088 44.001 74.7832 46.7764C75.2217 48.3194 75.0928 50.9922 74.499 52.5596C73.8027 54.4346 71.8144 56.5694 69.9336 57.4951C68.6436 58.1367 68.1797 58.2139 66.0127 58.2139C63.8462 58.2139 63.3818 58.1368 62.0923 57.4951C60.208 56.5693 58.2232 54.4346 57.5264 52.5596C56.9336 50.9922 56.8037 48.3194 57.2427 46.7764C57.9907 44.0528 60.4922 41.5069 63.3042 40.6084C65.3164 39.9659 66.6045 39.9659 68.6172 40.6084Z" fill="#363636"/>
<path d="M63.7938 44.4375C61.7572 45.3633 60.287 48.0869 60.725 50.168C61.4989 53.8448 65.5482 55.7207 68.7206 53.8701C70.706 52.7119 71.7118 50.3232 71.1718 48.0869C70.6034 45.6963 68.4374 43.9492 66.0126 43.9492C65.3671 43.9493 64.3871 44.1807 63.7938 44.4375Z" fill="#363636"/>
<path d="M36.0918 0.154319C32.1714 0.822319 31.5786 1.28522 31.5786 3.59812C31.5786 5.42282 32.0425 6.01413 33.8467 6.55373C35.3965 7.01613 41.0191 7.0679 44.3467 6.6821C51.2075 5.8598 55.6685 4.1377 54.0454 2.9301C52.7803 2.0302 49.1431 1.05361 44.9912 0.540012C42.5156 0.232012 36.9951 1.90735e-05 36.0918 0.154319Z" fill="#363636"/>
<path d="M89.4844 0.257922C83.1651 0.848222 77.6201 2.33901 77.6201 3.44391C77.6201 5.16611 85.4609 6.91361 93.25 6.93951C99.0537 6.93951 100.446 6.29741 100.446 3.59821C100.446 1.77401 99.8272 0.976621 98.0733 0.514221C96.4238 0.102621 92.3984 2.24113e-05 89.4844 0.257922Z" fill="#363636"/>
<path d="M112.776 0.283313C110.996 0.514313 109.758 1.05384 109.346 1.77404C108.959 2.54454 109.036 4.67781 109.5 5.34581C110.428 6.65681 111.152 6.8111 116.568 6.8111C120.229 6.8111 122.37 6.68221 124.434 6.32281C127.969 5.73151 131.038 4.80624 131.683 4.08654C132.173 3.54654 132.173 3.54653 131.45 2.93033C130.109 1.79943 125.492 0.745222 119.534 0.257922C116.053 -0.0252776 115.046 -0.0252872 112.776 0.283313Z" fill="#363636"/>
</g>
<defs>
<clipPath id="clip0">
<rect width="132" height="69" fill="white"/>
</clipPath>
</defs>
</svg>
